#!OML:ASF X:\2005_08_12_Meinard\c3d\meinard.ASF
:FULLY-SPECIFIED
:DEGREES
1148
root -2.51038 17.4031 -5.44213 -23.2427 -67.4778 12.0053
lowerback 32.2313 -1.03388 -0.399654
upperback 1.77709 -2.69658 -5.59116
thorax -15.1589 -1.47321 -4.74447
lowerneck 2.90915 -16.3603 4.64068
upperneck -18.5079 -20.884 9.94285
head -5.52252 -11.3087 3.48521
rclavicle 1.89839e-014 -4.77083e-015
rhumerus 7.97698 6.8237 18.919
rradius 29.8961
rwrist -91.1876
rhand -51.3471 -37.2918
rfingers 7.12502
rthumb -23.8815 -65.827
lclavicle 1.89839e-014 -4.77083e-015
lhumerus 151.836 141.985 221.109
lradius 11.3331
lwrist -49.3985
lhand -13.5312 -13.4253
lfingers 7.12502
lthumb 12.5811 16.1759
rfemur 4.88614 -6.92377 18.3571
rtibia 23.7129
rfoot -16.4336 5.76393
rtoes -11.0588
lfemur 9.62319 -4.7608 -7.41039
ltibia 30.1679
lfoot 12.205 13.7609
ltoes -29.0746
1149
root -2.50999 17.3971 -5.44226 -23.1647 -67.3795 11.9542
lowerback 32.2053 -1.04994 -0.390662
upperback 1.80007 -2.71156 -5.58858
thorax -15.122 -1.47996 -4.73995
lowerneck 3.05389 -16.3694 4.25839
upperneck -18.5137 -20.8829 10.1845
head -5.47688 -11.3055 3.60521
rclavicle -3.8763e-015 4.92986e-014
rhumerus 8.15866 0.133968 16.1124
rradius 29.6296
rwrist -80.3665
rhand -48.8616 -35.8934
rfingers 7.12502
rthumb -21.4961 -64.7206
lclavicle -3.8763e-015 4.92986e-014
lhumerus 151.634 142.197 221.019
lradius 11.4087
lwrist -49.2253
lhand -13.5231 -13.3906
lfingers 7.12502
lthumb 12.5889 16.2101
rfemur 4.75056 -7.11728 18.3241
rtibia 24.006
rfoot -16.7568 4.94424
rtoes -11.6863
lfemur 9.62001 -4.52392 -7.33725
ltibia 30.0113
lfoot 12.1929 13.5903
ltoes -29.4054
1150
root -2.50992 17.3877 -5.44257 -23.1711 -67.3106 11.9707
lowerback 32.1979 -1.05795 -0.382034
upperback 1.82269 -2.72086 -5.60478
thorax -15.0948 -1.48522 -4.75823
lowerneck 3.19416 -16.3735 3.90639
upperneck -18.4889 -20.8762 10.4089
head -5.42636 -11.2992 3.71446
rclavicle 4.77083e-015 2.06736e-014
rhumerus 8.88865 -6.54601 13.2426
rradius 29.1951
rwrist -69.0726
rhand -45.8396 -34.8924
rfingers 7.12502
rthumb -18.5914 -64.024
lclavicle 4.77083e-015 2.06736e-014
lhumerus 151.394 142.259 220.824
lradius 11.4971
lwrist -49.2958
lhand -13.4644 -13.3597
lfingers 7.12502
lthumb 12.6455 16.2375
rfemur 4.57773 -7.35737 18.2376
rtibia 24.3904
rfoot -17.0838 4.17072
rtoes -11.9572
lfemur 9.68628 -4.27199 -7.27592
ltibia 29.8056
lfoot 12.1693 13.4028
ltoes -29.6761
1151
root -2.50921 17.3778 -5.44282 -23.1844 -67.242 11.9785
lowerback 32.212 -1.07991 -0.364324
upperback 1.84232 -2.74399 -5.61133
thorax -15.0813 -1.49672 -4.76482
lowerneck 3.34805 -16.3761 3.56454
upperneck -18.4653 -20.8717 10.596
head -5.38381 -11.2917 3.81414
rclavicle -3.18055e-015 3.26007e-014
rhumerus 10.2422 -13.0598 10.2932
rradius 28.6224
rwrist -57.833
rhand -42.5614 -34.1589
rfingers 7.12502
rthumb -15.436 -63.5625
lclavicle -3.18055e-015 3.26007e-014
lhumerus 151.148 142.231 220.587
lradius 11.5544
lwrist -49.5716
lhand -13.3411 -13.295
lfingers 7.12502
lthumb 12.7644 16.2948
rfemur 4.37196 -7.58974 18.1592
rtibia 24.8682
rfoot -17.4452 3.33526
rtoes -12.3852
lfemur 9.77928 -4.00344 -7.20043
ltibia 29.5789
lfoot 12.1457 13.1802
ltoes -29.9207
1152
root -2.50847 17.3648 -5.44307 -23.2456 -67.1896 12.001
lowerback 32.2751 -1.13413 -0.452237
upperback 1.84721 -2.84189 -5.57394
thorax -15.1036 -1.53227 -4.63281
lowerneck 3.54253 -16.2963 3.32447
upperneck -18.4853 -20.7534 10.7069
head -5.38621 -11.2309 3.88592
rclavicle 3.27995e-015 3.57812e-014
rhumerus 12.4305 -19.4272 6.93789
rradius 28.0817
rwrist -47.0467
rhand -39.4483 -33.4673
rfingers 7.12502
rthumb -12.4359 -63.0773
lclavicle 3.27995e-015 3.57812e-014
lhumerus 150.518 141.56 219.887
lradius 11.6011
lwrist -50.4446
lhand -13.2085 -13.2921
lfingers 7.12502
lthumb 12.8922 16.2897
rfemur 4.15706 -7.87441 18.0498
rtibia 25.4261
rfoot -17.8259 2.64661
rtoes -12.7787
lfemur 9.92774 -3.77819 -7.13426
ltibia 29.3491
lfoot 12.0441 12.9696
ltoes -30.3139
1153
root -2.50748 17.3492 -5.44283 -23.3923 -67.1505 12.107
lowerback 32.3332 -1.16711 -0.513036
upperback 1.86678 -2.90777 -5.56661
thorax -15.1075 -1.55697 -4.56223
lowerneck 3.63512 -16.2493 3.23186
upperneck -18.4585 -20.6896 10.7114
head -5.38422 -11.1948 3.90175
rclavicle 4.86029e-014 -4.13472e-014
rhumerus 15.214 -25.3684 3.25034
rradius 27.5405
rwrist -37.1452
rhand -36.7179 -32.4672
rfingers 7.12502
rthumb -9.80251 -62.2191
lclavicle 4.86029e-014 -4.13472e-014
lhumerus 150.216 141.436 219.553
lradius 11.628
lwrist -50.8627
lhand -13.1311 -13.1962
lfingers 7.12502
lthumb 12.9668 16.3809
rfemur 3.90697 -8.2321 17.8825
rtibia 26.0488
rfoot -18.1835 2.11415
rtoes -13.0667
lfemur 10.0999 -3.55375 -7.10214
ltibia 29.1204
lfoot 11.9163 12.7334
ltoes -30.733
1154
root -2.50566 17.332 -5.44202 -23.5466 -67.1254 12.1911
lowerback 32.4404 -1.20871 -0.558058
upperback 1.87008 -2.97979 -5.55013
thorax -15.1523 -1.58494 -4.48727
lowerneck 3.77241 -16.1913 3.15086
upperneck -18.4294 -20.6056 10.7185
head -5.39071 -11.1498 3.92065
rclavicle 4.02539e-014 -3.33958e-014
rhumerus 18.7179 -30.6889 -0.888601
rradius 27.0452
rwrist -28.2697
rhand -34.4125 -31.1348
rfingers 7.12502
rthumb -7.57775 -60.979
lclavicle 4.02539e-014 -3.33958e-014
lhumerus 149.798 140.99 219.012
lradius 11.6027
lwrist -51.652
lhand -13.0003 -13.1489
lfingers 7.12502
lthumb 13.0929 16.4201
rfemur 3.65412 -8.57179 17.7204
rtibia 26.7315
rfoot -18.5394 1.70434
rtoes -13.2367
lfemur 10.3036 -3.34862 -7.05707
ltibia 28.9006
lfoot 11.767 12.4602
ltoes -31.2037
1155
root -2.50198 17.3137 -5.44131 -23.7264 -67.1193 12.2892
lowerback 32.5625 -1.25408 -0.5867
upperback 1.87895 -3.05334 -5.54403
thorax -15.1987 -1.61514 -4.43166
lowerneck 3.89475 -16.1352 3.15184
upperneck -18.4243 -20.5255 10.6704
head -5.41775 -11.1077 3.91623
rclavicle 1.56046e-014 6.67916e-014
rhumerus 22.888 -35.1102 -5.41746
rradius 26.5164
rwrist -20.7056
rhand -32.6592 -29.1876
rfingers 7.12502
rthumb -5.88516 -59.0859
lclavicle 1.56046e-014 6.67916e-014
lhumerus 149.483 140.722 218.597
lradius 11.6083
lwrist -52.2509
lhand -12.8799 -13.0694
lfingers 7.12502
lthumb 13.2089 16.4921
rfemur 3.37474 -8.83628 17.5784
rtibia 27.4659
rfoot -18.892 1.43448
rtoes -13.3511
lfemur 10.5328 -3.20444 -7.02334
ltibia 28.6837
lfoot 11.5291 12.2287
ltoes -31.7028
1156
root -2.49796 17.2931 -5.44013 -23.9421 -67.127 12.4052
lowerback 32.7096 -1.29177 -0.612334
upperback 1.88165 -3.1182 -5.54306
thorax -15.2631 -1.64191 -4.38669
lowerneck 4.01064 -16.0834 3.24328
upperneck -18.4026 -20.4516 10.5596
head -5.45538 -11.0681 3.88328
rclavicle 2.0276e-014 -9.54166e-015
rhumerus 27.6098 -38.57 -10.2065
rradius 25.8169
rwrist -14.0778
rhand -31.264 -26.7255
rfingers 7.12502
rthumb -4.53806 -56.6569
lclavicle 2.0276e-014 -9.54166e-015
lhumerus 149.101 140.156 218
lradius 11.5787
lwrist -53.1921
lhand -12.7886 -13.0381
lfingers 7.12502
lthumb 13.2969 16.5177
rfemur 3.10248 -9.10001 17.4209
rtibia 28.2295
rfoot -19.1993 1.34574
rtoes -13.25
lfemur 10.7924 -3.12734 -7.01902
ltibia 28.4781
lfoot 11.237 12.0362
ltoes -32.1905
